<?xml version="1.0" encoding="utf-8"?>
<!-- Generator: Adobe Illustrator 27.5.0, SVG Export Plug-In . SVG Version: 6.00 Build 0)  -->
<svg version="1.1" xmlns="http://www.w3.org/2000/svg" xmlns:xlink="http://www.w3.org/1999/xlink" x="0px" y="0px"
	 viewBox="0 0 750 500" style="enable-background:new 0 0 750 500;" xml:space="preserve">
<g id="BACKGROUND">
	<rect y="-0.083" style="fill:#DFE6FF;" width="750" height="500"/>
</g>
<g id="OBJECTS">
	<g>
		<path style="fill:#7E3FE0;" d="M265.028,257.491"/>
		<g>
			<g>
				<circle style="fill:#6A21C2;" cx="375.031" cy="106.352" r="46.104"/>
				<circle style="fill:#FFFFFF;" cx="375.031" cy="106.352" r="39.93"/>
			</g>
			<g>
				<g>
					<polygon style="fill:#6A21C2;" points="374.181,105.701 373.652,90.229 375.233,79.641 376.41,90.327 375.558,105.789 					"/>
					<polygon style="fill:#6A21C2;" points="375.7,106.121 374.275,106.831 379.915,123.667 388.31,134.484 384.677,121.898 					
						"/>
					<circle style="fill:#6A21C2;" cx="375.028" cy="106.171" r="2.656"/>
				</g>
				<g>
					<circle style="fill:#BA8AFF;" cx="375.028" cy="69.812" r="2.656"/>
					<circle style="fill:#BA8AFF;" cx="350.869" cy="81.867" r="2.656"/>
					<circle style="fill:#BA8AFF;" cx="351.557" cy="131.828" r="2.656"/>
					<circle style="fill:#BA8AFF;" cx="399.247" cy="81.046" r="2.656"/>
					<circle style="fill:#BA8AFF;" cx="401.695" cy="129.171" r="2.656"/>
					<circle style="fill:#BA8AFF;" cx="375.031" cy="142.53" r="2.656"/>
					<circle style="fill:#BA8AFF;" cx="339.372" cy="106.352" r="2.656"/>
					<circle style="fill:#BA8AFF;" cx="410.278" cy="106.352" r="2.656"/>
				</g>
			</g>
		</g>
		<g>
			<g>
				<path style="fill:#702CD1;" d="M304.651,435.855c0,0-20.622-126.768-15.956-138.143c4.667-11.375,84.764-35.442,93.363-32.549
					c8.598,2.893,76.637,24.601,81.971,31.617c5.333,7.016-22.207,139.075-22.207,139.075H304.651z"/>
				<g>
					<path style="fill:#7E3FE0;" d="M322.76,283.161c0,0-27.398,8-28.065,15.667c-0.667,7.667,33.123-7.444,35.228-8.389
						C332.028,289.494,329.16,284.038,322.76,283.161z"/>
					<path style="fill:#7E3FE0;" d="M431.707,285.569c0,0,27.398,8,28.065,15.667c0.667,7.667-33.123-7.444-35.228-8.389
						C422.439,291.902,425.307,286.446,431.707,285.569z"/>
				</g>
			</g>
			<g>
				<g>
					<g>
						<g>
							<path style="fill:#F7B5E3;" d="M367.234,283.228c-1.041-0.524-2.133-1.174-3.25-1.92c-0.077,5.437-1.068,11.685-4.638,15.457
								c-4.061,4.29,7.315,14.108,19.868,12.257c12.553-1.851,18.706-8.045,18.706-8.045s-6.963-5.421-7.264-18.904
								c-0.399,0.251-0.805,0.497-1.218,0.735C382.608,286.733,374.269,286.769,367.234,283.228z"/>
							<path style="fill:#6A21C2;" d="M363.984,281.308c0,0-0.284,8.772-2.922,13.147c0,0,22.927,0.979,29.866-8.635l-0.272-3.746
								c0,0-5.693,3.509-12.089,3.74C370.072,286.122,363.984,281.308,363.984,281.308z"/>
						</g>
						<g>
							<g>
								<g>
									<g>
										<g>
											<g>
												<g>
													<g>
														<path style="fill:#F7B5E3;" d="M419.638,241.671c-1.222-4.223-5.853-2.074-5.853-2.074
															c1.333-14.446-0.814-55.264-40.817-52.375c-40.003,2.889-33.262,52.523-33.262,52.523
															c-5.13-2.519-8.126,3.04-4.496,12.298c3.311,8.444,10.644,6.962,10.644,6.962
															c4.468,10.287,11.756,18.049,18.131,22.303c1.117,0.745,2.21,1.396,3.25,1.92c7.035,3.54,15.374,3.505,22.203-0.419
															c0.414-0.238,0.819-0.483,1.218-0.735c13.001-8.185,18.537-23.365,18.537-23.365
															C418.378,261.08,420.86,245.893,419.638,241.671z"/>
													</g>
												</g>
											</g>
										</g>
										<path style="fill:#4F14A3;" d="M413.31,247.635c0,0,1.364-6.02,3.692-3.612s-0.392,8.915-2.472,8.629
											c-2.08-0.286-0.36-1.432-0.102-3.353C414.686,247.377,413.31,247.635,413.31,247.635z"/>
										<path style="fill:#4F14A3;" d="M341.518,247.992c0,0-1.364-6.02-3.692-3.612s0.392,8.915,2.472,8.629
											c2.08-0.286,0.36-1.432,0.102-3.353S341.518,247.992,341.518,247.992z"/>
									</g>
									<g>
										<path style="fill:#4F14A3;" d="M371.546,271.617c3.195,4.089,10.157,4.234,13.104-0.216
											c0.76-1.146-1.085-2.215-1.84-1.076c-2.248,3.392-7.463,2.721-9.758-0.216
											C372.21,269.031,370.711,270.548,371.546,271.617L371.546,271.617z"/>
										<g>
											<circle style="fill:#EF84D3;" cx="357.941" cy="260.167" r="4.099"/>
											<g>
												<path style="fill:#4F14A3;" d="M356.877,241.333c-0.321,0.423,0.077-0.03,0.253-0.11
													c0.567-0.259,1.115-0.438,1.739-0.532c0.72-0.109,1.478-0.124,2.171,0.136c0.192,0.072,0.754,0.424,0.578,0.276
													c1.164,0.982,2.857-0.694,1.683-1.683c-2.165-1.827-6.706-1.628-8.48,0.712
													C353.896,241.352,355.962,242.539,356.877,241.333L356.877,241.333z"/>
												<g>
													
														<ellipse transform="matrix(0.9991 -0.042 0.042 0.9991 -10.1412 15.3108)" style="fill:#4F14A3;" cx="359.576" cy="249.182" rx="3.578" ry="5.206"/>
													<circle style="fill:#FFFFFF;" cx="359.684" cy="251.752" r="1.337"/>
												</g>
											</g>
										</g>
										<g>
											<circle style="fill:#EF84D3;" cx="397.191" cy="260.167" r="4.099"/>
											<g>
												<path style="fill:#4F14A3;" d="M398.254,241.333c0.321,0.423-0.077-0.03-0.253-0.11
													c-0.567-0.259-1.115-0.438-1.739-0.532c-0.72-0.109-1.478-0.124-2.171,0.136c-0.192,0.072-0.754,0.424-0.578,0.276
													c-1.164,0.982-2.857-0.694-1.683-1.683c2.165-1.827,6.706-1.628,8.48,0.712
													C401.236,241.352,399.169,242.539,398.254,241.333L398.254,241.333z"/>
												<g>
													
														<ellipse transform="matrix(0.042 -0.9991 0.9991 0.042 129.9912 633.931)" style="fill:#4F14A3;" cx="395.555" cy="249.182" rx="5.206" ry="3.578"/>
													<circle style="fill:#FFFFFF;" cx="395.555" cy="251.752" r="1.337"/>
												</g>
											</g>
										</g>
										<path style="fill:#4F14A3;" d="M380.601,257.804c-1.179-1.306-0.646-7.409-0.46-8.074
											c0.126-0.413-0.108-0.852-0.522-0.978c-0.418-0.13-0.852,0.107-0.981,0.521c-0.12,0.392-1.092,7.492,0.797,9.584
											c1.36,1.503,1.268,1.779,0.487,3.187c-0.659,1.188-2.749,1.3-3.28,1.31h-0.087c-0.037,0-0.074,0.003-0.109,0.008
											l-0.167,0.013l0.001,0.03c-0.291,0.11-0.502,0.39-0.51,0.715c-0.01,0.433,0.332,0.793,0.782,0.804l0.064,0
											c0.586,0,3.561-0.102,4.679-2.119C382.465,260.697,382.329,259.716,380.601,257.804z M376.617,264.664L376.617,264.664
											L376.617,264.664L376.617,264.664z"/>
									</g>
								</g>
								<path style="fill:#3C0F7C;" d="M425.742,209.179c-11.983-14.117-0.771-9.59-16.054-22.103
									c-13.237-10.837-25.734-8.957-30.356-5.799c0,0-17.122-6.714-32.406,5.799c-15.283,12.513-7.399,11.609-19.382,25.726
									c-11.983,14.117-20.442,6.682-15.63,28.021s17.855,13.475,14.005,24.551c-3.85,11.077-1.359,15.593,7.691,20.446
									c5.218,2.798,17.835,5.512,28.123,7.311c1.645-3.539,2.196-7.887,2.251-11.823c-6.374-4.254-13.662-12.016-18.131-22.303
									c0,0-7.333,1.482-10.644-6.962c-3.63-9.258-0.634-14.817,4.496-12.298l0-0.001c1.278,0.716,4.339,3.369,6.423,12.884
									c0,0-1.162-13.212,3.65-20.19s13.823-3.452,21.523-11.152c1.44-1.44,4.349,2.734,5.489,0.778
									c1.091,1.813,5.87-1.784,7.222-0.432c7.7,7.7,16.454,4.731,21.266,11.709s2.82,18.938,2.82,18.938
									c2.435-11.043,5.88-12.777,6.775-13.046c1.447-0.356,3.919-0.481,4.764,2.438c1.222,4.223-1.259,19.409-10.445,17.039
									c0,0-5.535,15.18-18.537,23.365c0.106,4.761,1.048,8.498,2.216,11.364c10.817-1.787,24.957-4.656,30.482-7.618
									c9.05-4.852,10.851-9.888,7.001-20.964s9.879-2.041,14.691-23.38S437.725,223.296,425.742,209.179z M380.032,182.617
									C380.032,182.617,380.032,182.617,380.032,182.617C380.032,182.617,380.032,182.617,380.032,182.617L380.032,182.617z"/>
							</g>
							<g>
								<g>
									<g>
										<path style="fill:#FF99E9;" d="M343.668,238.724h-3.833c0.699,0,1.353,0.617,1.917,1.69
											c1.145,2.179,1.917,6.247,1.917,10.91c0,4.663-0.771,8.731-1.917,10.91c-0.564,1.073-1.218,1.69-1.917,1.69h3.833
											c3.548,0,5.711-5.641,5.711-12.6C349.379,244.365,347.216,238.724,343.668,238.724z"/>
										<path style="fill:#E565CA;" d="M341.752,240.414c-0.564-1.073-1.218-1.69-1.917-1.69c-0.333,0-0.655,0.154-0.964,0.417
											c-1.65,1.407-2.87,6.32-2.87,12.182c0,5.863,1.22,10.775,2.87,12.182c0.308,0.263,0.63,0.417,0.964,0.417
											c0.699,0,1.353-0.617,1.917-1.69c1.145-2.179,1.917-6.247,1.917-10.91C343.668,246.661,342.897,242.593,341.752,240.414z"
											/>
									</g>
									<g>
										<path style="fill:#FF99E9;" d="M337.854,244.045h-2.215c0.404,0,0.781,0.356,1.107,0.976
											c0.662,1.259,1.107,3.609,1.107,6.303c0,2.694-0.446,5.044-1.107,6.303c-0.326,0.62-0.704,0.976-1.107,0.976h2.215
											c2.05,0,3.299-3.259,3.299-7.279C341.153,247.304,339.904,244.045,337.854,244.045z"/>
										<path style="fill:#E565CA;" d="M336.747,245.021c-0.326-0.62-0.704-0.976-1.107-0.976c-0.193,0-0.378,0.089-0.557,0.241
											c-0.953,0.813-1.658,3.651-1.658,7.038c0,3.387,0.705,6.225,1.658,7.038c0.178,0.152,0.364,0.241,0.557,0.241
											c0.404,0,0.781-0.356,1.107-0.976c0.662-1.259,1.107-3.609,1.107-6.303C337.854,248.63,337.408,246.28,336.747,245.021z"
											/>
									</g>
								</g>
								<g>
									<g>
										<g>
											<path style="fill:#FF99E9;" d="M411.463,238.724h3.833c-0.699,0-1.353,0.617-1.917,1.69
												c-1.146,2.179-1.917,6.247-1.917,10.91c0,4.663,0.771,8.731,1.917,10.91c0.564,1.073,1.218,1.69,1.917,1.69h-3.833
												c-3.548,0-5.711-5.641-5.711-12.6C405.752,244.365,407.915,238.724,411.463,238.724z"/>
											<path style="fill:#E565CA;" d="M413.38,240.414c0.564-1.073,1.218-1.69,1.917-1.69c0.333,0,0.655,0.154,0.964,0.417
												c1.65,1.407,2.87,6.32,2.87,12.182c0,5.863-1.22,10.775-2.87,12.182c-0.308,0.263-0.63,0.417-0.964,0.417
												c-0.699,0-1.353-0.617-1.917-1.69c-1.146-2.179-1.917-6.247-1.917-10.91C411.463,246.661,412.234,242.593,413.38,240.414
												z"/>
										</g>
										<g>
											<path style="fill:#FF99E9;" d="M417.278,244.045h2.215c-0.404,0-0.781,0.356-1.107,0.976
												c-0.662,1.259-1.107,3.609-1.107,6.303c0,2.694,0.446,5.044,1.107,6.303c0.326,0.62,0.704,0.976,1.107,0.976h-2.215
												c-2.05,0-3.299-3.259-3.299-7.279C413.978,247.304,415.228,244.045,417.278,244.045z"/>
											<path style="fill:#E565CA;" d="M418.385,245.021c0.326-0.62,0.704-0.976,1.107-0.976c0.193,0,0.379,0.089,0.557,0.241
												c0.953,0.813,1.658,3.651,1.658,7.038c0,3.387-0.705,6.225-1.658,7.038c-0.178,0.152-0.364,0.241-0.557,0.241
												c-0.404,0-0.781-0.356-1.107-0.976c-0.662-1.259-1.107-3.609-1.107-6.303C417.278,248.63,417.723,246.28,418.385,245.021
												z"/>
										</g>
									</g>
									<path style="fill:#E565CA;" d="M412.437,223.764c-4.216-11.582-11.646-18.622-19.83-22.531
										c-9.932-4.745-21.483-4.757-31.28,0.262c-7.709,3.949-14.46,9.91-18.432,21.291c-1.923,5.512-2.768,13.333-3.061,15.938
										l4.772,0.139c0,0-2.253-12.494,8.452-24.828c12.484-14.384,36.202-13.627,48.837,0.625
										c9.567,10.792,7.503,24.795,7.503,24.795l5.898-0.732C414.952,237.103,413.232,225.946,412.437,223.764z"/>
								</g>
							</g>
						</g>
					</g>
					<g>
						<g>
							<g>
								<path style="fill:#E565CA;" d="M424.153,335.751c1.444-23.582-3.85-31.041-6.497-32.004s-19.145-5.214-24.679-10.026
									c0,0-0.004,10.639-14.762,11.522c-17.576,1.051-17.152-10.787-17.152-10.787s-14.873,6.645-23.536,8.088
									s-11.069,15.4-10.107,26.951c0.69,8.283,3.454,25.041,6.138,40.737c1.059,6.191,0.369,14.097,1.27,19.37
									c1.809,10.581-0.609,27.194-4.577,42.482l86.78,0.084c-1.369-7.743-4.592-16.072-4.411-23.115
									C413.099,390.284,422.709,359.333,424.153,335.751z"/>
								<path style="fill:#E565CA;" d="M338.909,302.281c0,0-15.721,2.829-23.101,12.134c-7.379,9.304-33.114,78.731-36.332,99.622
									c-2.488,16.151,12.766,14.012,20.853,8.848c8.402-5.366,22.995-38.038,34.321-58.507c-2.684-15.696-1.76-28.77-2.451-37.053
									C331.237,315.775,330.246,303.725,338.909,302.281z"/>
								<path style="fill:#E565CA;" d="M412.618,302.555c0,0,15.721,2.567,23.101,11.871c7.379,9.304,27.654,74.743,34.363,96.991
									c4.719,15.646-9.386,17.034-17.473,11.869c-8.402-5.366-30.845-35.789-35.732-58.897c2.684-15.696,1.76-28.77,2.451-37.053
									C420.29,315.786,421.281,303.999,412.618,302.555z"/>
							</g>
							<g>
								<path style="fill:#DD47C0;" d="M321.362,313.494c0,0,9.138,27.929,10.667,42.333S338.112,339.828,321.362,313.494z"/>
								<path style="fill:#DD47C0;" d="M430.596,313.278c0,0-9.138,27.929-10.667,42.333S413.846,339.612,430.596,313.278z"/>
								<path style="fill:#DD47C0;" d="M357.448,305.496c0,0,2.159,9.499,18.159,9.332s19.667-8.667,19.667-8.667
									s-1.667,11.417-19.667,10.917S357.448,305.496,357.448,305.496z"/>
							</g>
						</g>
						<g>
							<g>
								<path style="fill:#FFFFFF;" d="M371.199,373.117l-11.739-1.426c-4.278-0.52-8.588-0.728-12.896-0.623l-11.694,0.284
									l-1.131-58.784l2.453-3.582c9.312-1.056,18.703-0.69,27.909,1.079c3.388,0.651,6.434,2.489,8.563,5.204l0,0L371.199,373.117
									z"/>
								<path style="fill:#FFFFFF;" d="M378.254,373.117l11.739-1.426c4.278-0.52,8.588-0.728,12.896-0.623l11.694,0.284
									l1.131-58.784l-2.453-3.582c-9.312-1.056-18.703-0.69-27.909,1.079c-3.388,0.651-6.434,2.489-8.563,5.204l0,0
									L378.254,373.117z"/>
								<g>
									<path style="fill:#6A21C2;" d="M372.662,376.684l-13.003-1.426c-4.739-0.52-9.508-0.728-14.274-0.623l-12.962,0.284
										v-62.216l1.464-0.15c12.353-1.264,24.83-0.49,36.932,2.293l1.843,0.424V376.684z"/>
									<rect x="372.662" y="315.27" style="fill:#7F3EDD;" width="4.128" height="61.414"/>
								</g>
								<path style="fill:#6A21C2;" d="M376.79,376.684l13.003-1.426c4.739-0.52,9.508-0.728,14.274-0.623l12.962,0.284v-62.216
									l-1.464-0.15c-12.353-1.264-24.83-0.49-36.932,2.293l-1.843,0.424V376.684z"/>
							</g>
							<g>
								<path style="fill:#F7B5E3;" d="M317.632,360.913c0.369-0.604,8.598-16.374,13.159-19.28s20.656-9.707,23.541-10.319
									c2.885-0.613,5.097,0.529,5.299,1.423c0.571,2.524-4.271,5.19-7.995,6.649c-3.724,1.458-13.669,5.397-14.628,6.275
									c-0.959,0.878,10.389-3.251,14.475-4.35c4.086-1.099,9.039-3.508,10.971-1.832c1.932,1.677,2.433,4.073-0.932,5.081
									s-17.266,4.843-21.951,6.906c-4.684,2.064-2.963,1.342-2.002,0.853c0.961-0.49,11.779-3.179,16.349-3.558
									c4.571-0.379,6.854-0.989,7.941,0.089c1.087,1.079,2.782,3.719-1.062,5.298c-3.844,1.579-14.667,2.945-17.31,3.918
									c-2.643,0.973-4.681,2.763-4.681,2.763s1.56-1.066,5.767-2.045c4.207-0.979,10.941-2.826,13.281-2.013
									c1.814,0.63,2.483,2.507,0.082,3.983c-2.401,1.476-9.735,2.587-12.497,4.162c-2.761,1.575-5.875,5.197-8.88,6.051
									s-8.899,1.238-11.069,0.044S315.756,363.979,317.632,360.913z"/>
								<g>
									<path style="fill:#EF84D3;" d="M279.206,419.928c0,0-0.182-17.028,15.372-34.532
										c13.181-14.833,24.898-27.483,24.898-27.483s6.668,11.437,10.24,12.415c2.595,0.711-19.949,44.933-23.978,51.359
										C301.709,428.112,282.928,442.541,279.206,419.928z"/>
									<path style="fill:#FF99E9;" d="M331.566,371.812c0,0-11.143-11.834-11.77-13.723c-0.627-1.889-6.72,4.111-5.74,6.123
										c0.981,2.012,11.922,13.731,13.893,12.867C330.532,375.946,331.654,372.889,331.566,371.812"/>
								</g>
							</g>
							<g>
								<path style="fill:#F7B5E3;" d="M430.056,360.638c-0.37-0.603-8.63-16.358-13.196-19.254
									c-4.566-2.897-20.675-9.667-23.561-10.274c-2.886-0.607-5.096,0.539-5.297,1.433c-0.567,2.526,4.281,5.182,8.008,6.633
									c3.727,1.451,13.679,5.371,14.64,6.247c0.961,0.876-10.395-3.231-14.483-4.322c-4.089-1.091-9.046-3.491-10.974-1.81
									c-1.928,1.681-2.425,4.077,0.942,5.079c3.367,1.002,17.276,4.809,21.964,6.864s2.965,1.337,2.004,0.849
									s-11.785-3.157-16.356-3.527s-6.856-0.976-7.941,0.104c-1.085,1.081-2.775,3.724,1.072,5.296
									c3.847,1.572,14.673,2.917,17.318,3.885c2.645,0.968,4.687,2.754,4.687,2.754s-1.562-1.063-5.771-2.034
									c-4.209-0.971-10.946-2.805-13.285-1.987c-1.812,0.634-2.478,2.512-0.074,3.983s9.74,2.569,12.505,4.138
									c2.764,1.57,5.885,5.185,8.891,6.034s8.901,1.221,11.069,0.022C424.383,369.552,431.937,363.7,430.056,360.638z"/>
								<g>
									<path style="fill:#EF84D3;" d="M471.576,419.544c0,0-0.477-17.022-16.697-33.911
										c-13.745-14.311-25.943-26.499-25.943-26.499s-6.438,10.575-9.969,11.691c-2.565,0.811,21.891,45.238,26.165,51.503
										C449.406,428.593,468.732,442.285,471.576,419.544z"/>
									<path style="fill:#FF99E9;" d="M416.594,371.318c0,0,11.388-10.96,12.109-12.816c0.721-1.855,6.505,4.443,5.425,6.403
										c-1.08,1.96-12.597,13.115-14.522,12.153C417.083,375.798,416.452,372.39,416.594,371.318"/>
								</g>
							</g>
						</g>
					</g>
				</g>
				<g>
					<g>
						
							<ellipse transform="matrix(0.9959 -0.0899 0.0899 0.9959 -15.4034 39.3007)" style="fill:#E565CA;" cx="428.392" cy="190.571" rx="5.674" ry="3.736"/>
						
							<rect x="433.017" y="170.767" transform="matrix(0.9789 0.2042 -0.2042 0.9789 46.073 -84.9085)" style="fill:#E565CA;" width="3.012" height="20.119"/>
					</g>
					<g>
						<g>
							
								<ellipse transform="matrix(0.9566 -0.2914 0.2914 0.9566 -45.5561 136.1802)" style="fill:#E565CA;" cx="434.432" cy="221.04" rx="5.026" ry="3.31"/>
							<rect x="436.653" y="202.57" style="fill:#E565CA;" width="2.668" height="17.821"/>
						</g>
						<g>
							
								<ellipse transform="matrix(0.9566 -0.2914 0.2914 0.9566 -44.0121 139.5694)" style="fill:#E565CA;" cx="446.583" cy="217.55" rx="5.026" ry="3.31"/>
							<polygon style="fill:#E565CA;" points="451.472,216.902 448.804,216.902 448.804,199.709 451.472,199.08 							"/>
						</g>
						<polygon style="fill:#E565CA;" points="436.653,202.57 451.472,199.08 451.472,201.714 436.653,205.202 						"/>
						<polygon style="fill:#E565CA;" points="436.653,207.251 451.472,203.761 451.472,206.395 436.653,209.883 						"/>
					</g>
					<g>
						<g>
							
								<ellipse transform="matrix(0.9566 -0.2914 0.2914 0.9566 -42.6912 97.0427)" style="fill:#E565CA;" cx="304.465" cy="191.852" rx="5.026" ry="3.31"/>
							<rect x="306.685" y="173.383" style="fill:#E565CA;" width="2.668" height="17.821"/>
						</g>
						<g>
							
								<ellipse transform="matrix(0.9566 -0.2914 0.2914 0.9566 -41.1472 100.4319)" style="fill:#E565CA;" cx="316.616" cy="188.363" rx="5.026" ry="3.31"/>
							<polygon style="fill:#E565CA;" points="321.504,187.715 318.836,187.715 318.836,170.521 321.504,169.893 							"/>
						</g>
						<polygon style="fill:#E565CA;" points="306.685,173.383 321.504,169.893 321.504,172.527 306.685,176.015 						"/>
						<polygon style="fill:#E565CA;" points="306.685,178.063 321.504,174.574 321.504,177.207 306.685,180.696 						"/>
					</g>
					<g>
						<g>
							
								<ellipse transform="matrix(0.8009 -0.5988 0.5988 0.8009 -70.8656 237.1746)" style="fill:#E565CA;" cx="321.208" cy="225.148" rx="5.674" ry="3.736"/>
							
								<rect x="319.813" y="203.576" transform="matrix(0.9406 -0.3395 0.3395 0.9406 -53.4411 121.7613)" style="fill:#E565CA;" width="3.012" height="20.119"/>
						</g>
						<path style="fill:#E565CA;" d="M315.47,201.864l1.315,3.645c0,0,8.054-3.172,11.293,0.886c0,0,0.882-1.027-1.273-3.527
							C324.651,200.367,315.47,201.864,315.47,201.864z"/>
					</g>
				</g>
			</g>
		</g>
		<g>
			<rect x="50.528" y="198.411" style="fill:#3C0F7C;" width="218" height="7.333"/>
			<g>
				<g>
					<g>
						<path style="fill:#6A21C2;" d="M240.411,179.492c0.446,0.219-9.698-7.876-13.931-28.884s-15.469-40.085-21.453-44.992
							c-5.984-4.907-1.388,0.181,1.94,4.459c3.328,4.277,7.631,10.72,11.492,20.219c3.86,9.499,6.462,25.543,8.849,31.321
							C229.694,167.392,233.646,176.162,240.411,179.492z"/>
						<path style="fill:#6A21C2;" d="M204.206,105.586c0,0-6.563-1.507-8.065-4.125c-1.503-2.618-6.745-10.697-4.23-10.974
							c2.515-0.276,7.248,2.663,9.907,6.686S204.206,105.586,204.206,105.586z"/>
						<path style="fill:#6A21C2;" d="M210.175,112.043c0,0-4.615,4.903-7.634,4.878s-12.639,0.418-11.607-1.892
							c1.032-2.31,5.959-4.91,10.774-5.173C206.524,109.592,210.175,112.043,210.175,112.043z"/>
						<path style="fill:#6A21C2;" d="M216.643,124.088c0,0-4.615,4.903-7.634,4.878s-12.639,0.418-11.607-1.892
							c1.032-2.31,5.959-4.91,10.774-5.173C212.992,121.637,216.643,124.088,216.643,124.088z"/>
						<path style="fill:#6A21C2;" d="M224.857,146.073c0,0-5.972,3.111-8.814,2.093c-2.842-1.018-12.072-3.766-10.338-5.608
							c1.735-1.842,7.243-2.675,11.877-1.339C222.216,142.557,224.857,146.073,224.857,146.073z"/>
						<path style="fill:#6A21C2;" d="M213.075,117.484c0,0,5.554-3.807,5.993-6.794c0.439-2.986,2.355-12.425-0.087-11.76
							c-2.442,0.665-5.767,5.134-6.767,9.851C211.214,113.499,213.075,117.484,213.075,117.484z"/>
						<path style="fill:#6A21C2;" d="M221.342,136.485c0,0,6.296-2.388,7.427-5.187c1.131-2.798,5.222-11.518,2.692-11.448
							c-2.529,0.069-6.816,3.627-8.902,7.975C220.474,132.173,221.342,136.485,221.342,136.485z"/>
						<path style="fill:#6A21C2;" d="M226.675,156.123c0,0,6.633-1.162,8.27-3.698c1.637-2.536,7.294-10.33,4.797-10.738
							c-2.497-0.407-7.377,2.281-10.243,6.159C226.634,151.726,226.675,156.123,226.675,156.123z"/>
					</g>
					<g>
						<path style="fill:#6A21C2;" d="M239.409,176.125c0.274,0.414-4.412-11.688,2.511-31.97
							c6.923-20.282,6.823-42.421,4.125-49.674c-2.699-7.254-1.291-0.543-0.569,4.829c0.721,5.371,1.194,13.105-0.254,23.255
							c-1.449,10.15-7.281,25.322-8.129,31.515C236.244,160.274,235.242,169.84,239.409,176.125z"/>
						<path style="fill:#6A21C2;" d="M245.351,94.041c0,0-4.911-4.607-4.891-7.625c0.02-3.018-0.44-12.638,1.872-11.611
							c2.312,1.028,4.92,5.95,5.192,10.765C247.795,90.386,245.351,94.041,245.351,94.041z"/>
						<path style="fill:#6A21C2;" d="M247.256,102.627c0,0-6.456,1.912-9.051,0.37c-2.595-1.542-11.13-6.004-9.075-7.481
							c2.055-1.476,7.621-1.241,11.914,0.957C245.336,98.67,247.256,102.627,247.256,102.627z"/>
						<path style="fill:#6A21C2;" d="M246.778,116.29c0,0-6.456,1.912-9.051,0.37c-2.595-1.542-11.13-6.004-9.075-7.481
							c2.055-1.476,7.621-1.241,11.914,0.957C244.858,112.333,246.778,116.29,246.778,116.29z"/>
						<path style="fill:#6A21C2;" d="M242.802,139.42c0,0-6.726-0.32-8.669-2.63c-1.943-2.31-8.533-9.333-6.107-10.051
							c2.426-0.718,7.605,1.337,10.935,4.825S242.802,139.42,242.802,139.42z"/>
						<path style="fill:#6A21C2;" d="M247.021,108.787c0,0,6.716-0.492,8.598-2.851c1.883-2.359,8.292-9.548,5.848-10.204
							s-7.568,1.531-10.808,5.103C247.42,104.407,247.021,108.787,247.021,108.787z"/>
						<path style="fill:#6A21C2;" d="M244.594,129.366c0,0,6.642,1.107,9.029-0.741c2.387-1.848,10.312-7.321,8.092-8.535
							c-2.22-1.214-7.715-0.299-11.707,2.407C246.016,125.204,244.594,129.366,244.594,129.366z"/>
						<path style="fill:#6A21C2;" d="M239.311,149.018c0,0,6.315,2.336,9.007,0.97s11.504-5.251,9.552-6.861
							s-7.522-1.745-11.951,0.163C241.49,145.198,239.311,149.018,239.311,149.018z"/>
					</g>
				</g>
				<g>
					<g>
						<circle style="fill:#E565CA;" cx="232.526" cy="176.336" r="20.799"/>
						<rect x="217.715" y="155.537" style="fill:#E565CA;" width="29.604" height="6.174"/>
						<rect x="223.553" y="190.961" style="fill:#E565CA;" width="17.461" height="6.174"/>
					</g>
					
						<ellipse transform="matrix(0.9424 -0.3344 0.3344 0.9424 -43.8764 91.0698)" style="fill:#F476DC;" cx="242.533" cy="172.954" rx="6.197" ry="7.563"/>
					<path style="fill:#CC58B6;" d="M217.715,161.711h29.604l-32.861,4.326C214.458,166.037,215.464,164.095,217.715,161.711"/>
					<rect x="242.533" y="155.537" style="fill:#F476DC;" width="2.808" height="6.174"/>
					<rect x="219.871" y="155.537" style="fill:#CC58B6;" width="5.824" height="6.174"/>
					<rect x="223.553" y="195.327" style="fill:#CC58B6;" width="17.461" height="1.808"/>
				</g>
			</g>
			<g>
				<g>
					<path style="fill:#EF84D3;" d="M181.374,145.126h-66.371c-1.912,0-3.462-1.55-3.462-3.462v-7.897
						c0-1.912,1.55-3.462,3.462-3.462h66.371c1.912,0,3.462,1.55,3.462,3.462v7.897
						C184.836,143.577,183.286,145.126,181.374,145.126z"/>
					<rect x="114.528" y="131.828" style="fill:#FF9CEA;" width="67" height="5.888"/>
				</g>
				<g>
					<path style="fill:#E565CA;" d="M197.777,160.889h-82.74c-1.931,0-3.496-1.565-3.496-3.496v-7.83
						c0-1.931,1.565-3.496,3.496-3.496h82.74c1.931,0,3.496,1.565,3.496,3.496v7.83
						C201.273,159.324,199.708,160.889,197.777,160.889z"/>
					<rect x="114.528" y="147.839" style="fill:#EF84D3;" width="84.667" height="6.822"/>
				</g>
				<g>
					<path style="fill:#6A21C2;" d="M190.509,176.673h-75.584c-2.332,0-4.223-1.891-4.223-4.223v-6.376
						c0-2.332,1.891-4.223,4.223-4.223h75.584c2.332,0,4.223,1.891,4.223,4.223v6.376
						C194.732,174.782,192.841,176.673,190.509,176.673z"/>
					<rect x="114.073" y="163.874" style="fill:#7935DB;" width="77.955" height="6.822"/>
				</g>
				<g>
					<path style="fill:#6A21C2;" d="M193.718,197.135h-78.312c-2.598,0-4.704-2.106-4.704-4.704v-9.838
						c0-2.598,2.106-4.704,4.704-4.704h78.312c2.598,0,4.704,2.106,4.704,4.704v9.838
						C198.421,195.029,196.315,197.135,193.718,197.135z"/>
					<rect x="114.073" y="179.938" style="fill:#7935DB;" width="81.33" height="6.822"/>
				</g>
			</g>
			<g>
				<g>
					<path style="fill:#6A21C2;" d="M98.921,197.307l-24.179-2.908c-2.005-0.241-3.436-2.062-3.194-4.068l11.493-95.565
						c0.241-2.005,2.062-3.436,4.068-3.194l24.179,2.908c2.005,0.241,3.436,2.062,3.194,4.068l-11.493,95.565
						C102.748,196.118,100.926,197.548,98.921,197.307z"/>
					
						<rect x="86.192" y="115.758" transform="matrix(0.9928 0.1194 -0.1194 0.9928 17.7541 -10.1016)" style="fill:#FFFFFF;" width="13.966" height="54.698"/>
					
						<rect x="81.352" y="176.366" transform="matrix(0.9928 0.1194 -0.1194 0.9928 22.5246 -9.2358)" style="fill:#FFFFFF;" width="13.966" height="13.966"/>
					<circle style="fill:#FFFFFF;" cx="97.728" cy="105.248" r="6.237"/>
				</g>
				<g>
					<polygon style="fill:#7935DB;" points="85.778,94.58 73.528,189.828 77.278,189.828 88.335,94.58 					"/>
					<polygon style="fill:#7935DB;" points="108.812,98.53 96.562,193.777 100.312,193.777 111.369,98.53 					"/>
				</g>
			</g>
		</g>
		<g>
			<g>
				<g>
					<rect x="93.87" y="428.9" style="fill:#FFAEF0;" width="118.055" height="3.226"/>
					<rect x="92.035" y="425.674" style="fill:#FFDCFA;" width="118.055" height="3.226"/>
					<rect x="93.87" y="422.449" style="fill:#FFAEF0;" width="118.055" height="3.226"/>
					<rect x="93.029" y="419.223" style="fill:#FFAEF0;" width="118.055" height="3.226"/>
					<rect x="93.947" y="415.998" style="fill:#FFAEF0;" width="118.055" height="3.226"/>
					<rect x="92.112" y="412.772" style="fill:#FFAEF0;" width="118.055" height="3.226"/>
					<rect x="93.947" y="409.547" style="fill:#FFDCFA;" width="118.055" height="3.226"/>
					<rect x="93.106" y="406.321" style="fill:#FFAEF0;" width="118.055" height="3.226"/>
					<rect x="94.023" y="403.096" style="fill:#FFAEF0;" width="118.055" height="3.226"/>
					<rect x="92.188" y="399.87" style="fill:#FFAEF0;" width="118.055" height="3.226"/>
					<rect x="94.023" y="396.645" style="fill:#FFAEF0;" width="118.055" height="3.226"/>
					<rect x="93.182" y="393.419" style="fill:#FFDCFA;" width="118.055" height="3.226"/>
					<rect x="94.1" y="390.194" style="fill:#FFAEF0;" width="118.055" height="3.226"/>
					<rect x="92.265" y="386.968" style="fill:#FFAEF0;" width="118.055" height="3.226"/>
					<rect x="94.1" y="383.742" style="fill:#FFDCFA;" width="118.055" height="3.226"/>
					<rect x="93.259" y="380.517" style="fill:#FFAEF0;" width="118.055" height="3.226"/>
					<rect x="94.176" y="377.291" style="fill:#FFAEF0;" width="118.055" height="3.226"/>
					<rect x="92.341" y="374.066" style="fill:#FFAEF0;" width="118.055" height="3.226"/>
					<rect x="94.176" y="370.84" style="fill:#FFAEF0;" width="118.055" height="3.226"/>
					<rect x="93.335" y="367.615" style="fill:#FFAEF0;" width="118.055" height="3.226"/>
					<rect x="94.253" y="364.389" style="fill:#FFAEF0;" width="118.055" height="3.226"/>
					<rect x="92.418" y="361.164" style="fill:#FFAEF0;" width="118.055" height="3.226"/>
					<rect x="94.253" y="357.938" style="fill:#FFDCFA;" width="118.055" height="3.226"/>
					<rect x="93.412" y="354.713" style="fill:#FFAEF0;" width="118.055" height="3.226"/>
					<rect x="94.329" y="351.487" style="fill:#FFAEF0;" width="118.055" height="3.226"/>
					<rect x="92.494" y="348.262" style="fill:#FFAEF0;" width="118.055" height="3.226"/>
					<rect x="94.329" y="345.036" style="fill:#FFAEF0;" width="118.055" height="3.226"/>
					<rect x="93.488" y="341.811" style="fill:#FFDCFA;" width="118.055" height="3.226"/>
					<rect x="94.406" y="338.585" style="fill:#FFAEF0;" width="118.055" height="3.226"/>
					<rect x="92.571" y="335.359" style="fill:#FFAEF0;" width="118.055" height="3.226"/>
					<rect x="94.406" y="332.134" style="fill:#FFAEF0;" width="118.055" height="3.226"/>
					<rect x="93.565" y="328.908" style="fill:#FFAEF0;" width="118.055" height="3.226"/>
					<rect x="94.482" y="325.683" style="fill:#FFDCFA;" width="118.055" height="3.226"/>
					<rect x="92.647" y="322.457" style="fill:#FFAEF0;" width="118.055" height="3.226"/>
					<rect x="94.482" y="319.232" style="fill:#FFAEF0;" width="118.055" height="3.226"/>
					<rect x="93.641" y="316.006" style="fill:#FFAEF0;" width="118.055" height="3.226"/>
				</g>
				<g>
					<g>
						<path style="fill:#FFFFFF;" d="M94.106,266.559c-0.356-0.946-1.421-1.417-2.347-1.066c-0.94,0.354-1.418,1.403-1.065,2.346
							l9.655,25.734c0.299,0.796,1.094,1.259,1.9,1.172c0.151-0.016,0.3-0.05,0.447-0.106c0.94-0.354,1.418-1.403,1.065-2.346
							L94.106,266.559z"/>
						<path style="fill:#FFFFFF;" d="M119.264,256.82c-1.009,0.002-1.823,0.812-1.826,1.819l-0.066,27.485
							c-0.003,1.006,0.811,1.823,1.816,1.827c0.069,0,0.138-0.004,0.204-0.011c0.91-0.099,1.621-0.869,1.622-1.807l0.066-27.485
							C121.083,257.64,120.269,256.823,119.264,256.82z"/>
						<path style="fill:#FFFFFF;" d="M65.687,286.468c-0.888-0.485-1.991-0.157-2.473,0.724c-0.484,0.883-0.159,1.99,0.724,2.473
							l24.113,13.19c0.34,0.186,0.712,0.252,1.068,0.213c0.573-0.062,1.108-0.393,1.404-0.938c0.484-0.883,0.159-1.99-0.724-2.473
							L65.687,286.468z"/>
					</g>
					<g>
						<path style="fill:#FFFFFF;" d="M221.627,269.233c0.47-0.894,0.115-2.004-0.763-2.462c-0.889-0.467-1.991-0.127-2.461,0.763
							l-12.815,24.315c-0.396,0.752-0.214,1.654,0.387,2.199c0.113,0.102,0.237,0.191,0.376,0.264
							c0.889,0.467,1.991,0.127,2.461-0.763L221.627,269.233z"/>
						<path style="fill:#FFFFFF;" d="M245.623,281.561c-0.672-0.753-1.819-0.823-2.573-0.156l-20.583,18.215
							c-0.754,0.666-0.824,1.818-0.158,2.571c0.046,0.051,0.095,0.1,0.144,0.145c0.679,0.615,1.727,0.634,2.429,0.011l20.583-18.215
							C246.219,283.466,246.288,282.314,245.623,281.561z"/>
						<path style="fill:#FFFFFF;" d="M187.865,261.225c-0.228-0.986-1.205-1.592-2.184-1.366c-0.982,0.225-1.592,1.204-1.366,2.184
							l6.167,26.784c0.087,0.378,0.285,0.7,0.551,0.94c0.427,0.387,1.03,0.566,1.634,0.426c0.982-0.225,1.592-1.204,1.366-2.184
							L187.865,261.225z"/>
					</g>
				</g>
			</g>
			<g>
				<g>
					<g>
						
							<rect x="213.906" y="326.538" transform="matrix(0.9959 0.0909 -0.0909 0.9959 34.4027 -18.7166)" style="fill:#E565CA;" width="17.333" height="83.185"/>
						<g>
							
								<rect x="225.911" y="330.77" transform="matrix(0.9959 0.0909 -0.0909 0.9959 31.1276 -19.5651)" style="fill:#992B85;" width="8.667" height="2"/>
							
								<rect x="229.864" y="335.033" transform="matrix(0.9959 0.0909 -0.0909 0.9959 31.5228 -19.7099)" style="fill:#992B85;" width="4.333" height="2"/>
							
								<rect x="229.493" y="339.1" transform="matrix(0.9959 0.0909 -0.0909 0.9959 31.8911 -19.6592)" style="fill:#992B85;" width="4.333" height="2"/>
							
								<rect x="229.121" y="343.166" transform="matrix(0.9959 0.0909 -0.0909 0.9959 32.2594 -19.6086)" style="fill:#992B85;" width="4.333" height="2"/>
							
								<rect x="224.426" y="347.036" transform="matrix(0.9959 0.0909 -0.0909 0.9959 32.6008 -19.3626)" style="fill:#992B85;" width="8.667" height="2"/>
							
								<rect x="228.379" y="351.299" transform="matrix(0.9959 0.0909 -0.0909 0.9959 32.9959 -19.5074)" style="fill:#992B85;" width="4.333" height="2"/>
							
								<rect x="228.007" y="355.365" transform="matrix(0.9959 0.0909 -0.0909 0.9959 33.3642 -19.4567)" style="fill:#992B85;" width="4.333" height="2"/>
							
								<rect x="227.636" y="359.432" transform="matrix(0.9959 0.0909 -0.0909 0.9959 33.7325 -19.4061)" style="fill:#992B85;" width="4.333" height="2"/>
							
								<rect x="227.265" y="363.498" transform="matrix(0.9959 0.0909 -0.0909 0.9959 34.1008 -19.3555)" style="fill:#992B85;" width="4.333" height="2"/>
							
								<rect x="222.569" y="367.368" transform="matrix(0.9959 0.0909 -0.0909 0.9959 34.4422 -19.1094)" style="fill:#992B85;" width="8.667" height="2"/>
							
								<rect x="226.522" y="371.631" transform="matrix(0.9959 0.0909 -0.0909 0.9959 34.8374 -19.2542)" style="fill:#992B85;" width="4.333" height="2"/>
							
								<rect x="226.15" y="375.698" transform="matrix(0.9959 0.0909 -0.0909 0.9959 35.2057 -19.2036)" style="fill:#992B85;" width="4.333" height="2"/>
							
								<rect x="225.779" y="379.764" transform="matrix(0.9959 0.0909 -0.0909 0.9959 35.5739 -19.153)" style="fill:#992B85;" width="4.333" height="2"/>
							
								<rect x="221.083" y="383.633" transform="matrix(0.9959 0.0909 -0.0909 0.9959 35.9154 -18.9069)" style="fill:#992B85;" width="8.667" height="2"/>
							
								<rect x="225.036" y="387.897" transform="matrix(0.9959 0.0909 -0.0909 0.9959 36.3105 -19.0517)" style="fill:#992B85;" width="4.333" height="2"/>
							
								<rect x="224.665" y="391.963" transform="matrix(0.9959 0.0909 -0.0909 0.9959 36.6788 -19.0011)" style="fill:#992B85;" width="4.333" height="2"/>
							
								<rect x="224.294" y="396.03" transform="matrix(0.9959 0.0909 -0.0909 0.9959 37.0471 -18.9505)" style="fill:#992B85;" width="4.333" height="2"/>
							
								<rect x="223.922" y="400.096" transform="matrix(0.9959 0.0909 -0.0909 0.9959 37.4154 -18.8998)" style="fill:#992B85;" width="4.333" height="2"/>
							
								<rect x="219.227" y="403.965" transform="matrix(0.9959 0.0909 -0.0909 0.9959 37.7568 -18.6538)" style="fill:#992B85;" width="8.667" height="2"/>
						</g>
					</g>
					<g>
						
							<rect x="202.722" y="339.625" transform="matrix(0.991 -0.1342 0.1342 0.991 -47.7743 31.0272)" style="fill:#992B85;" width="7" height="60.4"/>
						
							<rect x="199.138" y="339.867" transform="matrix(0.991 -0.1342 0.1342 0.991 -44.2553 30.3067)" style="fill:#E565CA;" width="7" height="7"/>
					</g>
					<g>
						
							<rect x="234.097" y="346.367" transform="matrix(0.9752 0.2212 -0.2212 0.9752 88.7535 -43.0985)" style="fill:#992B85;" width="5.333" height="56.538"/>
						<polygon style="fill:#8E2680;" points="240.417,346.477 244.863,340.821 245.619,347.657 						"/>
					</g>
				</g>
				<g>
					<g>
						<polygon style="fill:#6A21C2;" points="235.881,432.125 204.091,432.125 198.392,375.779 242.029,375.779 						"/>
						<polygon style="fill:#712BD6;" points="222.573,375.779 222.573,432.168 233.341,432.168 238.588,375.779 						"/>
					</g>
					<path style="opacity:0.3;fill:#FFFFFF;" d="M207.194,430.495c-0.507,0-0.941-0.384-0.994-0.898l-5.167-50.591
						c-0.056-0.55,0.344-1.04,0.893-1.097c0.551-0.05,1.04,0.345,1.096,0.894l5.167,50.591c0.056,0.55-0.344,1.04-0.893,1.097
						C207.262,430.493,207.227,430.495,207.194,430.495z"/>
				</g>
			</g>
		</g>
		<g>
			<g>
				<g>
					<g>
						<g>
							<path style="fill:#7F3DE8;" d="M600.52,268.481h-42.291c-5.174,0-9.369-4.195-9.369-9.369v-28.36
								c0-5.175,4.195-9.369,9.369-9.369h42.291c5.175,0,9.369,4.195,9.369,9.369v28.36
								C609.889,264.287,605.694,268.481,600.52,268.481z"/>
							<polygon style="fill:#7F3DE8;" points="573.425,268.481 573.425,277.435 586.758,268.481 							"/>
						</g>
						<g>
							<g>
								<path style="fill:#FFFFFF;" d="M571.619,245.567l-9.531-9.844c-0.656,0.847-1.05,1.907-1.05,3.061v15.288
									c0,1.227,0.442,2.349,1.175,3.22l11.678-9.943C573.069,246.863,572.302,246.273,571.619,245.567z"/>
								<path style="fill:#FFFFFF;" d="M579.375,248.853c-1.52,0-2.986-0.315-4.333-0.905l-11.943,10.169
									c0.828,0.605,1.845,0.966,2.948,0.966h26.654c1.104,0,2.121-0.361,2.948-0.966l-11.943-10.169
									C582.36,248.538,580.895,248.853,579.375,248.853z"/>
								<path style="fill:#FFFFFF;" d="M574.859,246.524c0.394,0.211,0.804,0.386,1.222,0.538c1.041,0.38,2.148,0.589,3.293,0.589
									c1.145,0,2.252-0.209,3.293-0.589c0.419-0.153,0.829-0.328,1.222-0.538c0.868-0.465,1.67-1.063,2.377-1.793l9.552-9.865
									c-0.856-0.681-1.937-1.091-3.116-1.091h-26.654c-1.179,0-2.26,0.41-3.116,1.091l9.552,9.865
									C573.189,245.461,573.992,246.059,574.859,246.524z"/>
								<path style="fill:#FFFFFF;" d="M584.859,247.349l11.678,9.943c0.732-0.871,1.175-1.994,1.175-3.22v-15.288
									c0-1.154-0.394-2.214-1.05-3.061l-9.531,9.844C586.447,246.273,585.68,246.863,584.859,247.349z"/>
							</g>
							<g>
								<path style="fill:#E565CA;" d="M598.18,239.685h-10c-3.208,0-5.833-2.625-5.833-5.833v0c0-3.208,2.625-5.833,5.833-5.833h10
									c3.208,0,5.833,2.625,5.833,5.833v0C604.013,237.06,601.388,239.685,598.18,239.685z"/>
								<g>
									<g>
										<path style="fill:#FFFFFF;" d="M586.418,236.327h1.543v-4.643h-1.227v-0.523c0.613-0.101,1.059-0.254,1.433-0.463h0.663
											v5.629h1.39v0.677h-3.802V236.327z"/>
										<path style="fill:#FFFFFF;" d="M591.3,233.827c0-2.114,0.813-3.248,2.158-3.248s2.158,1.138,2.158,3.248
											c0,2.115-0.813,3.295-2.158,3.295S591.3,235.942,591.3,233.827z M594.774,233.827c0-1.849-0.532-2.593-1.315-2.593
											c-0.782,0-1.315,0.744-1.315,2.593s0.533,2.64,1.315,2.64C594.241,236.467,594.774,235.676,594.774,233.827z"/>
										<path style="fill:#FFFFFF;" d="M596.546,233.827c0-2.114,0.813-3.248,2.158-3.248s2.158,1.138,2.158,3.248
											c0,2.115-0.813,3.295-2.158,3.295S596.546,235.942,596.546,233.827z M600.02,233.827c0-1.849-0.532-2.593-1.315-2.593
											c-0.782,0-1.315,0.744-1.315,2.593s0.533,2.64,1.315,2.64C599.487,236.467,600.02,235.676,600.02,233.827z"/>
									</g>
								</g>
							</g>
						</g>
					</g>
					<path style="opacity:0.3;fill:#FFFFFF;" d="M552.096,261.268c-0.543,0-0.988-0.434-1-0.979
						c-0.004-0.195-0.411-19.633,0.086-27.418c0.548-8.584,6.508-9.26,6.567-9.265l6.264-0.005c0.553,0,1,0.448,1,1s-0.447,1-1,1
						h-6.103c-0.469,0.071-4.315,0.856-4.732,7.397c-0.491,7.701-0.086,27.054-0.082,27.249c0.012,0.553-0.427,1.01-0.979,1.021
						C552.109,261.268,552.103,261.268,552.096,261.268z"/>
				</g>
				<g>
					<path style="fill:#FFFFFF;" d="M502.479,235.607c-0.039-1.01-0.901-1.793-1.89-1.753c-1.004,0.039-1.788,0.884-1.751,1.889
						l1.035,27.466c0.032,0.849,0.64,1.54,1.433,1.712c0.148,0.032,0.301,0.047,0.457,0.041c1.004-0.039,1.788-0.884,1.751-1.889
						L502.479,235.607z"/>
					<path style="fill:#FFFFFF;" d="M529.426,234.31c-0.958-0.317-1.987,0.195-2.307,1.149l-8.741,26.058
						c-0.32,0.954,0.194,1.986,1.147,2.307c0.066,0.022,0.132,0.04,0.197,0.054c0.895,0.194,1.813-0.313,2.11-1.203l8.741-26.058
						C530.893,235.663,530.378,234.631,529.426,234.31z"/>
					<path style="fill:#FFFFFF;" d="M469.228,245.524c-0.689-0.74-1.839-0.778-2.575-0.094c-0.738,0.685-0.779,1.838-0.094,2.575
						l18.715,20.129c0.264,0.284,0.596,0.464,0.946,0.54c0.563,0.122,1.175-0.024,1.628-0.446c0.738-0.685,0.779-1.838,0.094-2.575
						L469.228,245.524z"/>
				</g>
				<g>
					<g>
						<g>
							<path style="fill:#7F3DE8;" d="M580.855,122.593h-13.931c-13.006,0-23.549-10.543-23.549-23.549v0
								c0-13.006,10.543-23.549,23.549-23.549h13.931c13.006,0,23.549,10.543,23.549,23.549v0
								C604.404,112.049,593.861,122.593,580.855,122.593z"/>
							<polygon style="fill:#7F3DE8;" points="567.648,122.593 567.648,131.546 580.982,122.593 							"/>
						</g>
						<g>
							<g>
								<path style="fill:none;" d="M575.951,106.235c6.347-2.385,7.252-5.195,7.258-6.59l-16.312,6.321
									C568.096,107.149,570.653,108.226,575.951,106.235z"/>
								<path style="fill:#FFFFFF;" d="M565.898,104.339l-0.184-0.476c-0.375-0.967-1.463-1.447-2.43-1.073l-5.45,2.112
									c-0.967,0.375-1.447,1.463-1.073,2.43l0.498,1.284l8.986-3.482C565.979,104.681,565.898,104.339,565.898,104.339z"/>
								<path style="fill:#FFFFFF;" d="M588.956,107.594c3.318-2.988,4.774-7.443,3.992-11.724l-9.74,3.774
									c-0.006,1.395-0.911,4.205-7.258,6.59c-5.297,1.991-7.854,0.914-9.054-0.269l-9.271,3.593l0.582,1.502
									c1.122,2.895,3.885,4.852,6.99,4.871c3.161,0.02,7.694-0.485,13.54-2.459C583.208,111.966,586.532,109.778,588.956,107.594z
									"/>
								<path style="fill:#FFFFFF;" d="M592.304,93.558c-0.375-0.967-1.463-1.447-2.43-1.073l-6.199,2.402
									c-0.967,0.375-1.447,1.463-1.073,2.43l0.291,0.75c0.071,0.183,0.118,0.369,0.153,0.556l9.678-3.751
									C592.606,94.431,592.472,93.991,592.304,93.558z"/>
							</g>
							<g>
								<path style="fill:#FFFFFF;" d="M569.804,84.902c-0.099-0.386-0.496-0.616-0.874-0.517c-0.383,0.099-0.615,0.489-0.517,0.874
									l2.688,10.491c0.083,0.324,0.375,0.54,0.695,0.54c0.06,0,0.12-0.007,0.18-0.022c0.383-0.099,0.615-0.489,0.517-0.874
									L569.804,84.902z"/>
								<path style="fill:#FFFFFF;" d="M580.073,82.157c-0.395-0.042-0.749,0.241-0.793,0.635l-1.195,10.763
									c-0.044,0.394,0.24,0.749,0.634,0.793c0.027,0.003,0.054,0.004,0.08,0.004c0.361,0,0.672-0.272,0.712-0.639l1.195-10.763
									C580.75,82.556,580.466,82.201,580.073,82.157z"/>
								<path style="fill:#FFFFFF;" d="M557.826,91.492c-0.327-0.228-0.773-0.146-0.999,0.179c-0.227,0.325-0.147,0.773,0.179,0.999
									l8.884,6.192c0.125,0.087,0.268,0.129,0.409,0.129c0.227,0,0.451-0.107,0.59-0.308c0.227-0.325,0.147-0.773-0.179-0.999
									L557.826,91.492z"/>
							</g>
						</g>
					</g>
					<path style="opacity:0.3;fill:#FFFFFF;" d="M589.861,116.934c-0.405,0-0.787-0.249-0.937-0.652
						c-0.192-0.517,0.071-1.092,0.588-1.286c0.411-0.153,10.073-3.894,10.851-15.418c0.779-11.528-10.843-17.676-10.96-17.737
						c-0.49-0.253-0.684-0.856-0.431-1.347s0.858-0.683,1.346-0.431c0.528,0.271,12.909,6.794,12.041,19.649
						c-0.867,12.844-12.039,17.118-12.151,17.159C590.094,116.914,589.976,116.934,589.861,116.934z"/>
				</g>
				<g>
					<g>
						<polygon style="fill:#EF84D3;" points="551.123,173.539 567.94,162.78 550.284,156.38 554.685,151.479 542.32,150.515 
							545.895,134.905 538.524,138.275 535.686,127.387 523.81,142.629 514.162,125.967 508.887,138.727 498.083,132.261 
							499.847,147.587 492.058,147.126 495.814,152.678 477.376,156.622 490.866,168.128 480.793,176.916 497.325,180.259 
							495.163,201.081 511.143,191.273 517.919,207.158 527.106,190.876 528.583,191.531 544.247,204.392 544.987,182.37 
							558.154,181.194 						"/>
						<g>
							<g>
								<path style="fill:#FFFFFF;" d="M524.661,158.057c0-2.6-1.564-4.685-4.669-4.685c-2.136,0-4.058,1.055-5.562,2.768
									l-2.287-2.083c2.036-2.283,4.795-4,8.302-4c4.897,0,8.117,2.972,8.117,7.726c0,6.36-7.803,8.919-7.013,15.684h-3.529
									C516.991,165.948,524.661,163.175,524.661,158.057z M517.007,180.641c0-1.829,1.299-3.077,2.883-3.077
									s2.883,1.248,2.883,3.077c0,1.768-1.299,3.016-2.883,3.016S517.007,182.409,517.007,180.641z"/>
							</g>
						</g>
					</g>
					<g>
						<path style="opacity:0.3;fill:#FFFFFF;" d="M547.195,154.994h-10.334c-0.319,0-0.62-0.153-0.808-0.411
							c-0.188-0.258-0.242-0.591-0.145-0.895l3.726-11.591l-3.788,2.104c-0.283,0.158-0.627,0.167-0.92,0.027
							c-0.293-0.141-0.498-0.416-0.552-0.736l-0.99-5.942l-6.943,7.777c-0.368,0.413-1.002,0.446-1.412,0.08
							c-0.412-0.368-0.448-1-0.08-1.412l8.333-9.333c0.256-0.288,0.654-0.403,1.024-0.294c0.369,0.107,0.645,0.417,0.708,0.796
							l1.101,6.602l4.761-2.645c0.356-0.2,0.801-0.161,1.12,0.101c0.317,0.26,0.442,0.688,0.317,1.079l-4.08,12.694h8.962
							c0.553,0,1,0.448,1,1S547.748,154.994,547.195,154.994z"/>
						<path style="opacity:0.3;fill:#FFFFFF;" d="M519.195,200.08c-0.008,0-0.016,0-0.022,0c-0.356-0.008-0.681-0.205-0.853-0.516
							l-6.527-11.824l-12.402,8.254c-0.326,0.216-0.748,0.223-1.079,0.018c-0.333-0.206-0.516-0.586-0.467-0.974l2.069-16.62
							l-12.024-1.684c-0.547-0.077-0.929-0.582-0.852-1.129c0.077-0.546,0.577-0.934,1.129-0.852l13,1.82
							c0.541,0.076,0.921,0.572,0.854,1.114l-1.922,15.432l11.491-7.647c0.232-0.154,0.522-0.206,0.791-0.139
							c0.271,0.066,0.503,0.243,0.638,0.488l6.222,11.271l6.936-11.311c0.151-0.247,0.402-0.416,0.688-0.463
							c0.284-0.048,0.578,0.031,0.801,0.215l13.167,10.856c0.427,0.351,0.487,0.981,0.136,1.408
							c-0.35,0.425-0.982,0.488-1.407,0.135l-12.28-10.124l-7.231,11.794C519.866,199.9,519.543,200.08,519.195,200.08z"/>
					</g>
				</g>
				<g>
					<g>
						<g>
							<path style="fill:#EF84D3;" d="M665.74,260.227h-13.206c-12.33,0-22.325-9.995-22.325-22.325v0
								c0-12.33,9.995-22.325,22.325-22.325h13.206c12.33,0,22.325,9.995,22.325,22.325v0
								C688.065,250.232,678.069,260.227,665.74,260.227z"/>
							<polygon style="fill:#EF84D3;" points="654.499,260.227 654.499,268.715 667.139,260.227 							"/>
						</g>
						<g>
							<circle style="fill:#6A21C2;" cx="643.257" cy="238.19" r="4.365"/>
							<circle style="fill:#6A21C2;" cx="659.137" cy="238.19" r="4.365"/>
							<circle style="fill:#6A21C2;" cx="675.016" cy="238.19" r="4.365"/>
						</g>
					</g>
					<path style="opacity:0.3;fill:#FFFFFF;" d="M676.153,254.953c-0.419,0-0.809-0.265-0.948-0.684
						c-0.175-0.524,0.108-1.091,0.632-1.265c2.24-0.747,4.676-3.461,6.205-6.915c2.196-4.961,2.223-10.605,0.071-15.484
						c-0.144-0.326-0.293-0.644-0.446-0.953c-3.228-6.5-10.188-10.701-17.73-10.701h-6.908c-0.553,0-1-0.448-1-1s0.447-1,1-1h6.908
						c8.297,0,15.959,4.636,19.521,11.811c0.167,0.335,0.328,0.68,0.485,1.035c2.378,5.393,2.352,11.626-0.073,17.101
						c-1.773,4.005-4.609,7.071-7.4,8.001C676.364,254.936,676.258,254.953,676.153,254.953z"/>
				</g>
				<g>
					<g>
						<path style="fill:#BA8AFF;" d="M631.608,198.843h-42.083c-5.232,0-9.473-4.241-9.473-9.473v-28.153
							c0-5.232,4.241-9.473,9.473-9.473h42.083c5.232,0,9.473,4.241,9.473,9.473v28.153
							C641.081,194.602,636.839,198.843,631.608,198.843z"/>
						<polygon style="fill:#BA8AFF;" points="603.848,198.843 603.848,207.796 617.181,198.843 						"/>
					</g>
					<g>
						<rect x="586.38" y="170.775" style="fill:#FFFFFF;" width="27.519" height="2.628"/>
						<rect x="617.187" y="170.775" style="fill:#FFFFFF;" width="16.341" height="2.628"/>
						<rect x="586.363" y="159.654" style="fill:#FFFFFF;" width="16.341" height="2.628"/>
						<rect x="586.38" y="178.54" style="fill:#FFFFFF;" width="16.308" height="2.628"/>
						<rect x="603.842" y="178.54" style="fill:#FFFFFF;" width="25.967" height="2.628"/>
						<rect x="586.38" y="186.305" style="fill:#FFFFFF;" width="9.474" height="2.628"/>
						<rect x="615.883" y="186.305" style="fill:#FFFFFF;" width="9.474" height="2.628"/>
						<rect x="596.76" y="186.305" style="fill:#FFFFFF;" width="17.914" height="2.628"/>
					</g>
					<path style="opacity:0.3;fill:#FFFFFF;" d="M638.217,192.236c-0.007,0-0.014,0-0.021,0c-0.552-0.012-0.99-0.469-0.979-1.021
						c0.004-0.194,0.41-19.547-0.081-27.248c-0.44-6.904-4.722-7.397-4.766-7.402l-6.069,0.005c-0.553,0-1-0.448-1-1s0.447-1,1-1
						h6.166c0.156,0.01,6.117,0.686,6.665,9.27c0.497,7.785,0.089,27.223,0.085,27.418
						C639.205,191.803,638.76,192.236,638.217,192.236z"/>
				</g>
				<g>
					<g>
						<polygon style="fill:#BA8AFF;" points="633.806,108.303 619.419,117.698 634.666,123.064 630.917,127.317 641.566,128.048 
							638.615,141.511 644.932,138.552 647.462,147.899 657.56,134.687 665.997,148.949 670.435,137.925 679.785,143.403 
							678.144,130.227 684.851,130.561 681.574,125.813 697.411,122.271 685.709,112.477 694.307,104.833 680.053,102.088 
							681.746,84.151 668.072,92.72 662.113,79.103 654.336,93.19 653.06,92.638 639.476,81.694 639.016,100.654 627.693,101.771 
													"/>
						<g>
							<g>
								<g>
									<path style="fill:#FFFFFF;" d="M656.989,123.522c0-1.564,1.111-2.632,2.466-2.632c1.355,0,2.467,1.067,2.467,2.632
										c0,1.512-1.111,2.58-2.467,2.58C658.1,126.102,656.989,125.035,656.989,123.522z M657.817,101.737l-0.092-3.878h3.459
										l-0.091,3.878l-0.471,15.648h-2.335L657.817,101.737z"/>
								</g>
							</g>
							<g>
								<g>
									<path style="fill:#FFFFFF;" d="M643.905,106.789l-0.656-3.824l3.421-0.505l0.477,3.85l1.82,15.549l-2.311,0.341
										L643.905,106.789z M646.268,128.461c-0.229-1.546,0.714-2.765,2.056-2.963c1.34-0.198,2.595,0.696,2.823,2.242
										c0.221,1.497-0.722,2.715-2.063,2.913S646.489,129.958,646.268,128.461z"/>
								</g>
							</g>
							<g>
								<g>
									<path style="fill:#FFFFFF;" d="M667.445,127.074c0.226-1.548,1.479-2.444,2.818-2.249c1.342,0.195,2.288,1.412,2.063,2.96
										c-0.218,1.496-1.472,2.392-2.813,2.197C668.173,129.786,667.227,128.57,667.445,127.074z M671.405,105.635l0.469-3.851
										l3.423,0.499l-0.649,3.824l-2.722,15.417l-2.311-0.337L671.405,105.635z"/>
								</g>
							</g>
						</g>
					</g>
					<g>
						<path style="opacity:0.3;fill:#FFFFFF;" d="M665.528,144.279c-0.274,0-0.528-0.15-0.66-0.394l-5.673-10.5
							c-0.196-0.364-0.061-0.819,0.304-1.016c0.365-0.198,0.819-0.061,1.017,0.303l4.905,9.08l2.948-7.498
							c0.08-0.204,0.246-0.363,0.454-0.435c0.206-0.07,0.436-0.048,0.624,0.063l6.975,4.103l-1.311-10.49
							c-0.028-0.228,0.049-0.456,0.21-0.62s0.391-0.245,0.617-0.219l5.625,0.626c0.412,0.046,0.708,0.417,0.662,0.829
							c-0.045,0.411-0.409,0.707-0.828,0.663l-4.68-0.521l1.382,11.058c0.035,0.284-0.094,0.563-0.332,0.72
							c-0.239,0.157-0.546,0.165-0.792,0.02l-7.531-4.43l-3.218,8.183c-0.107,0.271-0.361,0.457-0.653,0.474
							C665.558,144.279,665.543,144.279,665.528,144.279z"/>
						<path style="opacity:0.3;fill:#FFFFFF;" d="M641.153,100.703c-0.414,0-0.75-0.336-0.75-0.75V86.578
							c0-0.279,0.155-0.535,0.402-0.665c0.247-0.13,0.547-0.111,0.775,0.049l12.709,8.83l6.984-11.967
							c0.207-0.358,0.665-0.479,1.025-0.27c0.357,0.209,0.479,0.668,0.27,1.026l-7.394,12.668c-0.105,0.181-0.281,0.309-0.485,0.354
							c-0.205,0.044-0.418,0.003-0.59-0.117l-12.197-8.475v11.94C641.903,100.367,641.567,100.703,641.153,100.703z"/>
					</g>
				</g>
			</g>
			<g>
				<g>
					<g>
						<path style="fill:#6A21C2;" d="M657.678,396.935H500.527c-4.808,0-8.705-3.897-8.705-8.705v-89.086
							c0-4.808,3.897-8.705,8.705-8.705h157.151c4.808,0,8.705,3.897,8.705,8.705v89.086
							C666.383,393.038,662.486,396.935,657.678,396.935z"/>
						<rect x="532.029" y="316.559" style="fill:#702CD1;" width="92.579" height="56.481"/>
						<rect x="563.475" y="396.935" style="fill:#5418AA;" width="31.254" height="17.595"/>
						<path style="fill:#6A21C2;" d="M618.677,432.125h-79.149c-2.373,0-4.297-1.924-4.297-4.297v-9
							c0-2.373,1.924-4.297,4.297-4.297h79.149c2.373,0,4.297,1.924,4.297,4.297v9C622.974,430.201,621.051,432.125,618.677,432.125
							z"/>
					</g>
				</g>
				<g>
					<g>
						<path style="opacity:0.3;fill:#FFFFFF;" d="M663.361,387.578c-0.553,0-1-0.447-1-1v-86.283c0-3.374-2.856-6.118-6.367-6.118
							h-14.785c-0.553,0-1-0.447-1-1s0.447-1,1-1h14.785c4.613,0,8.367,3.642,8.367,8.118v86.283
							C664.361,387.13,663.914,387.578,663.361,387.578z"/>
						<path style="opacity:0.3;fill:#FFFFFF;" d="M518.751,393.658h-14.785c-4.613,0-8.367-3.594-8.367-8.012v-84.985
							c0-0.553,0.447-1,1-1s1,0.447,1,1v84.985c0,3.314,2.856,6.012,6.367,6.012h14.785c0.553,0,1,0.447,1,1
							S519.304,393.658,518.751,393.658z"/>
					</g>
					<path style="opacity:0.3;fill:#FFFFFF;" d="M619.987,427.724c-0.553,0-1-0.447-1-1v-6.229c0-0.977-0.795-1.771-1.771-1.771
						H538.82c-0.553,0-1-0.447-1-1s0.447-1,1-1h78.396c2.08,0,3.771,1.691,3.771,3.771v6.229
						C620.987,427.276,620.54,427.724,619.987,427.724z"/>
				</g>
			</g>
		</g>
		<rect x="50.585" y="432.125" style="fill:#3C0F7C;" width="648.893" height="7.459"/>
	</g>
</g>
</svg>
