<svg width="22" height="18" viewBox="0 0 22 18" fill="none" xmlns="http://www.w3.org/2000/svg">
    <path d="M21.4371 2.48522C20.8596 3.34841 20.1285 4.10703 19.2863 4.71516C19.2942 4.90022 19.2986 5.08572 19.2986 5.27253C19.2986 10.9657 14.9664 17.5304 7.04156 17.5304C4.60819 17.5304 1.43719 16.6782 0.4375 15.5953C0.77525 15.6356 1.11825 15.6557 1.46562 15.6557C3.48469 15.6557 5.34231 14.9667 6.81625 13.8112C4.93106 13.7767 3.33987 12.5302 2.79169 10.8187C3.64919 10.9535 4.73725 10.7443 4.73725 10.7443C4.73725 10.7443 1.3685 10.166 1.28144 6.46603C2.25531 7.03084 3.23269 7.00459 3.23269 7.00459C3.23269 7.00459 1.28975 5.80847 1.31687 3.41928C1.33306 2.01009 1.89919 1.25234 1.89919 1.25234C5.58031 5.78528 10.7796 5.75422 10.7796 5.75422C10.7796 5.75422 10.668 5.11066 10.668 4.77291C10.668 2.39422 12.5965 0.464844 14.9761 0.464844C16.2151 0.464844 17.3346 0.988094 18.1204 1.82591C19.1026 1.63209 20.0248 1.27334 20.8569 0.779843C20.4811 2.28484 18.963 3.16334 18.963 3.16334C18.963 3.16334 20.2619 3.01941 21.4371 2.48522Z" fill="#7D7E80"/>
</svg>
